<svg stroke="#2fc68a" fill="#2fc68a" xmlns="http://www.w3.org/2000/svg" id="icon-carpet" viewBox="0 0 32 32">
<path d="M31.365 11.186c0.295 0 0.533 0.239 0.533 0.533 0 0.274-0.206 0.499-0.471 0.53l-0.062 0.004h-1.949c-0.295 0-0.533-0.239-0.533-0.533 0-0.274 0.206-0.499 0.471-0.53l0.062-0.004h1.949z"/>
<path d="M31.365 12.604c0.295 0 0.533 0.239 0.533 0.533 0 0.274-0.206 0.499-0.471 0.53l-0.062 0.004h-2.126c-0.295 0-0.533-0.239-0.533-0.533 0-0.274 0.206-0.499 0.471-0.53l0.062-0.004h2.126z"/>
<path d="M31.011 14.021c0.295 0 0.533 0.239 0.533 0.533 0 0.274-0.206 0.499-0.471 0.53l-0.062 0.004h-1.949c-0.295 0-0.533-0.239-0.533-0.533 0-0.274 0.206-0.499 0.471-0.53l0.062-0.004h1.949z"/>
<path d="M30.657 15.439c0.295 0 0.533 0.239 0.533 0.533 0 0.273-0.206 0.499-0.471 0.53l-0.062 0.004h-1.772c-0.295 0-0.533-0.239-0.533-0.533 0-0.274 0.206-0.499 0.471-0.53l0.062-0.004h1.772z"/>
<path d="M30.302 16.856c0.295 0 0.533 0.239 0.533 0.533 0 0.273-0.206 0.499-0.471 0.53l-0.062 0.004h-1.595c-0.295 0-0.533-0.239-0.533-0.533 0-0.273 0.206-0.499 0.471-0.53l0.062-0.004h1.595z"/>
<path d="M30.302 18.274c0.295 0 0.533 0.239 0.533 0.533 0 0.273-0.206 0.499-0.471 0.53l-0.062 0.004h-1.772c-0.295 0-0.533-0.239-0.533-0.533 0-0.273 0.206-0.499 0.471-0.53l0.062-0.004h1.772z"/>
<path d="M29.948 19.691c0.295 0 0.533 0.239 0.533 0.533 0 0.273-0.206 0.499-0.471 0.53l-0.062 0.004h-1.595c-0.295 0-0.533-0.239-0.533-0.533 0-0.273 0.206-0.499 0.471-0.53l0.062-0.004h1.595z"/>
<path d="M29.948 21.109c0.295 0 0.533 0.239 0.533 0.533 0 0.273-0.206 0.499-0.471 0.53l-0.062 0.004h-1.772c-0.295 0-0.533-0.239-0.533-0.533 0-0.273 0.206-0.499 0.471-0.53l0.062-0.004h1.772z"/>
<path d="M29.593 22.527c0.295 0 0.533 0.239 0.533 0.533 0 0.273-0.206 0.499-0.471 0.53l-0.062 0.004h-1.595c-0.295 0-0.533-0.239-0.533-0.533 0-0.273 0.206-0.499 0.471-0.53l0.062-0.004h1.595z"/>
<path d="M26.758 12.604c0.31 0 0.55 0.262 0.533 0.564l-0.007 0.061-1.418 8.151c-0.041 0.234-0.23 0.41-0.462 0.438l-0.064 0.004h-17.365c-0.295 0-0.533-0.239-0.533-0.533 0-0.273 0.206-0.499 0.471-0.53l0.062-0.004 16.916-0 1.232-7.084-15.667 0c-0.274 0-0.499-0.206-0.53-0.471l-0.004-0.062c0-0.274 0.206-0.499 0.471-0.53l0.062-0.004h16.302z"/>
<path d="M29.593 10.123c0.303 0 0.54 0.25 0.533 0.545l-0.005 0.060-1.772 13.113c-0.033 0.244-0.228 0.431-0.468 0.458l-0.061 0.003h-24.63c-0.295 0-0.533-0.239-0.533-0.533 0-0.273 0.206-0.499 0.471-0.53l0.062-0.004 24.164-0 1.628-12.046-20.121 0c-0.274 0-0.499-0.206-0.53-0.471l-0.004-0.062c0-0.274 0.206-0.499 0.471-0.53l0.062-0.004h20.732z"/>
<path d="M3.191 18.807c1.468 0 2.658 1.19 2.658 2.658s-1.19 2.658-2.658 2.658c-1.468 0-2.658-1.19-2.658-2.658s1.19-2.658 2.658-2.658zM3.191 19.874c-0.879 0-1.591 0.712-1.591 1.591s0.712 1.591 1.591 1.591c0.879 0 1.591-0.712 1.591-1.591s-0.712-1.591-1.591-1.591z"/>
<path d="M7.090 6.933c1.369 0 2.483 1.094 2.483 2.448 0 0.392-0.094 0.771-0.27 1.112l-0.070 0.126-0.917-0.546c0.124-0.209 0.19-0.445 0.19-0.692 0-0.761-0.632-1.381-1.416-1.381-0.677 0-1.25 0.466-1.385 1.095l-0.016 0.087-1.055-0.156c0.177-1.197 1.222-2.092 2.456-2.092z"/>
<path d="M4.816 8.527l1.004 0.36-4.253 11.872-1.004-0.36z"/>
<path d="M8.35 10.15l1.023 0.304-3.367 11.341-1.023-0.304z"/>
</svg>