<svg stroke="#2fc68a" fill="#2fc68a" xmlns="http://www.w3.org/2000/svg" id="icon-carSeat" viewBox="0 0 32 32">
<path d="M21.797 4.8h-1.345c-1.25 0-2.417 0.98-2.633 2.211l-0.085 0.482c-0.112 0.638 0.043 1.258 0.44 1.731l0.082 0.092c0.393 0.415 0.942 0.641 1.546 0.641l1.174-0-0.014 0.263-0.34 0-0.11 0.003c-1.024 0.052-1.982 0.829-2.245 1.819l-2.234 9.048-7.248-0.559c-0.617-0.044-1.166 0.175-1.513 0.621-0.322 0.415-0.415 0.958-0.274 1.51l0.016 0.051 0.961 2.648c0.253 1.006 1.323 1.839 2.413 1.839h9.428c1.13 0 2.13-0.9 2.249-2.023l1.356-12.786 0.008-0.094 0.002-0.048-0-0.105 0.453-3.871-0.025 0.072c0.086-0.223 0.138-0.457 0.154-0.695l0.031-0.441c0.044-0.635-0.167-1.241-0.594-1.699s-1.017-0.71-1.653-0.71zM20.452 5.867h1.345c0.342 0 0.649 0.131 0.873 0.371s0.334 0.555 0.31 0.897l-0.031 0.441c-0.009 0.132-0.038 0.262-0.086 0.386-0.016 0.042-0.027 0.085-0.032 0.129l-0.464 3.965-0.003 0.080c0.002 0.056 0.001 0.102-0.003 0.142l-1.356 12.786c-0.062 0.581-0.604 1.069-1.188 1.069l-9.515-0.003c-0.576-0.045-1.167-0.526-1.309-1.082l-0.966-2.668 0.005 0.021c-0.063-0.247-0.028-0.452 0.082-0.594 0.118-0.152 0.318-0.232 0.592-0.212l7.696 0.594c0.26 0.020 0.496-0.151 0.559-0.404l2.32-9.397c0.128-0.601 0.744-1.101 1.341-1.101h0.846c0.283 0 0.517-0.222 0.533-0.505l0.072-1.329c0.017-0.305-0.227-0.562-0.533-0.562h-1.737c-0.339 0-0.622-0.126-0.812-0.352s-0.265-0.526-0.206-0.86l0.085-0.482c0.127-0.721 0.851-1.329 1.583-1.329z"/>
</svg>