<svg stroke="#2fc68a" fill="#2fc68a" xmlns="http://www.w3.org/2000/svg" id="icon-seaterSofa" viewBox="0 0 32 32">
<path d="M14.368 6.933h-9.372c-0.788 0-1.426 0.638-1.426 1.426v5.802c0 0.788 0.638 1.426 1.426 1.426h9.372c0.788 0 1.426-0.638 1.426-1.426v-5.802c0-0.788-0.638-1.426-1.426-1.426zM4.996 8h9.372c0.198 0 0.359 0.161 0.359 0.359v5.802c0 0.198-0.161 0.359-0.359 0.359h-9.372c-0.198 0-0.359-0.161-0.359-0.359v-5.802c0-0.198 0.161-0.359 0.359-0.359z"/>
<path d="M25.526 6.933h-9.372c-0.788 0-1.426 0.638-1.426 1.426v5.802c0 0.788 0.638 1.426 1.426 1.426h9.372c0.788 0 1.426-0.638 1.426-1.426v-5.802c0-0.788-0.638-1.426-1.426-1.426zM16.154 8h9.372c0.198 0 0.359 0.161 0.359 0.359v5.802c0 0.198-0.161 0.359-0.359 0.359h-9.372c-0.198 0-0.359-0.161-0.359-0.359v-5.802c0-0.198 0.161-0.359 0.359-0.359z"/>
<path d="M30.067 16.306h-28.641c-0.788 0-1.426 0.638-1.426 1.426v3.57c0 0.788 0.638 1.426 1.426 1.426h28.641c0.788 0 1.426-0.638 1.426-1.426v-3.57c0-0.788-0.638-1.426-1.426-1.426zM1.426 17.372h28.641c0.198 0 0.359 0.161 0.359 0.359v3.57c0 0.198-0.161 0.359-0.359 0.359h-28.641c-0.198 0-0.359-0.161-0.359-0.359v-3.57c0-0.198 0.161-0.359 0.359-0.359z"/>
<path d="M6.869 21.661h-5.083v1.872c0 0.788 0.638 1.426 1.426 1.426h2.231c0.788 0 1.426-0.638 1.426-1.426v-1.872zM2.852 22.727h2.95l0 0.806c0 0.198-0.161 0.359-0.359 0.359h-2.231l-0.053-0.004c-0.173-0.026-0.306-0.175-0.306-0.355l-0-0.806z"/>
<path d="M29.931 21.993h-5.083v1.872c0 0.788 0.638 1.426 1.426 1.426h2.231c0.788 0 1.426-0.638 1.426-1.426v-1.872zM25.915 23.059h2.95l0 0.806c0 0.198-0.161 0.359-0.359 0.359h-2.231l-0.053-0.004c-0.173-0.026-0.306-0.175-0.306-0.355l-0-0.806z"/>
<path d="M25.435 14.539l-20.064-0.018c-0.916-0.001-1.819 0.212-2.639 0.622l-1.592 0.796c-0.256 0.128-0.418 0.39-0.418 0.677 0 0.418 0.339 0.756 0.756 0.756l24.94 0 3.594 0.044c0.319 0.004 0.607-0.193 0.718-0.493 0.146-0.392-0.054-0.827-0.445-0.973l-2.803-1.042c-0.655-0.244-1.348-0.369-2.047-0.369zM25.434 15.606l0.214 0.005c0.499 0.023 0.993 0.123 1.462 0.297l1.13 0.419-1.817-0.022-23.63-0.001 0.416-0.208c0.671-0.335 1.411-0.51 2.161-0.509l20.064 0.018z"/>
</svg>